:SAMPLES-PER-SECOND 30
:FRAME-RANGE 1-1390
:FULLY-SPECIFIED
:DEGREES
218
root  46.3662 38.5661 -75.6548 150.525 -78.8582 -144.184
RightUpLeg  -81.6105 -13.6785 61.3586
RightLeg  127.349 5.24991 -5.76386
RightFoot  -26.6535 0.209293 2.90226
RightToes  6.35937e-011 1.2921e-014 -6.02303e-014
Spine  16.7132 -0.462234 3.94751
Spine1  -3.12438 3.3544 -9.01307
HEad  6.36089 25.4432 -8.04722
LeftShoulder1  2.73665 -8.65153 -16.4164
LeftArm  34.0654 -24.249 -69.3997
LeftForeArm  39.6675 -0.330445 -17.7847
LeftHand  -0.0141724 6.91874 1.62615
RightShoulder  2.37283 7.3801 15.5574
RightArm  -0.12686 39.6117 83.9187
RightForeArm  102.697 -4.47282 7.27728
RightHand  0.439319 -17.9154 -4.79214
LeftUpLeg  -17.1726 -20.7056 -2.09807
LeftLeg  35.1486 7.85346 6.28282
LeftFoot  -15.713 0.27417 4.70593
LeftToes  4.52251e-011 4.07896e-011 -5.42348e-012
219
root  46.0018 39.6747 -76.2907 140.34 -81.2248 -134.32
RightUpLeg  -83.858 -13.6881 61.5616
RightLeg  128.978 5.28482 -5.46205
RightFoot  -27.0662 0.200391 2.78124
RightToes  6.35937e-011 1.2921e-014 -6.02303e-014
Spine  16.983 -0.832186 2.93222
Spine1  -4.13703 2.46304 -7.01434
HEad  9.18686 27.0001 -6.66694
LeftShoulder1  2.80094 -9.25699 -15.7694
LeftArm  35.3748 -24.1979 -71.2913
LeftForeArm  38.1622 -0.758026 -17.8573
LeftHand  -0.0205592 6.88828 0.950792
RightShoulder  2.31368 7.27337 15.1882
RightArm  0.439163 40.4457 83.5292
RightForeArm  100.625 -4.62232 7.59996
RightHand  0.255866 -17.481 -3.25214
LeftUpLeg  -16.1651 -23.5876 -1.92469
LeftLeg  33.966 10.1895 7.67566
LeftFoot  -7.24673 -0.0508573 2.64298
LeftToes  4.52251e-011 4.07896e-011 -5.42348e-012
220
root  45.6665 40.3839 -76.8489 131.32 -82.17 -125.651
RightUpLeg  -84.2223 -13.4799 62.4048
RightLeg  130.193 5.54675 -5.50465
RightFoot  -27.5413 0.188854 2.64052
RightToes  6.35937e-011 1.2921e-014 -6.02303e-014
Spine  17.1344 -0.594894 3.759
Spine1  -4.3284 2.52146 -6.01547
HEad  10.9085 27.9671 -6.6126
LeftShoulder1  2.84455 -9.58692 -15.5142
LeftArm  27.6876 -24.602 -73.1452
LeftForeArm  45.9218 1.19887 -17.3864
LeftHand  -0.0267078 7.04811 0.817153
RightShoulder  2.30013 7.38622 14.7961
RightArm  1.23615 41.2763 82.2947
RightForeArm  98.7302 -4.82605 8.31729
RightHand  0.141586 -17.1417 -2.24393
LeftUpLeg  -16.5571 -20.95 -2.83827
LeftLeg  35.052 9.87702 7.73911
LeftFoot  -2.61921 -0.588819 7.91507
LeftToes  4.52251e-011 4.07896e-011 -5.42348e-012
221
root  45.2231 40.7775 -77.2935 131.684 -81.9122 -126.681
RightUpLeg  -82.2528 -13.5475 62.4407
RightLeg  131.149 5.03371 -4.77131
RightFoot  -26.4826 0.192334 2.79898
RightToes  6.35937e-011 1.2921e-014 -6.02303e-014
Spine  16.9089 -0.177675 5.62682
Spine1  -3.29494 3.27171 -6.23363
HEad  10.8737 29.2954 -7.67434
LeftShoulder1  2.90557 -9.58202 -16.041
LeftArm  27.8016 -24.0571 -73.1773
LeftForeArm  44.6543 1.12246 -17.4486
LeftHand  -0.0220121 6.80615 1.11984
RightShoulder  2.302 7.54137 14.4778
RightArm  0.812543 41.9501 83.3609
RightForeArm  99.7993 -4.66266 7.60911
RightHand  0.215316 -17.4717 -2.87994
LeftUpLeg  -15.5807 -13.8338 -4.45012
LeftLeg  32.1083 2.92839 2.34615
LeftFoot  -6.48972 -0.0693633 2.55981
LeftToes  4.52251e-011 4.07896e-011 -5.42348e-012
222
root  44.9237 41.0229 -78.0027 128.876 -82.7144 -123.794
RightUpLeg  -80.6893 -12.5047 62.0659
RightLeg  130.465 5.01319 -4.87171
RightFoot  -24.709 0.363908 4.53435
RightToes  6.35937e-011 1.2921e-014 -6.02303e-014
Spine  17.508 -0.12511 6.31911
Spine1  -3.39772 2.9769 -6.30514
HEad  9.68391 30.5365 -9.10708
LeftShoulder1  2.99637 -9.36747 -17.238
LeftArm  31.0022 -22.0911 -71.579
LeftForeArm  39.52 0.25512 -17.7535
LeftHand  -0.022355 6.69972 1.12945
RightShoulder  2.3115 7.53287 14.5926
RightArm  0.709292 42.0495 85.0866
RightForeArm  102.451 -4.43259 6.95528
RightHand  0.349996 -18.0561 -3.95991
LeftUpLeg  -14.3487 -9.67631 -6.28482
LeftLeg  24.8235 -1.12412 -0.223966
LeftFoot  -12.4349 0.0318865 -4.4638
LeftToes  4.52251e-011 4.07896e-011 -5.42348e-012
223
root  44.5867 40.7389 -78.5683 123.552 -84.3118 -117.856
RightUpLeg  -80.0044 -11.9885 61.5462
RightLeg  130.052 4.91605 -4.84064
RightFoot  -24.7275 0.45549 5.30879
RightToes  6.35937e-011 1.2921e-014 -6.02303e-014
Spine  17.5826 -0.346334 6.06832
Spine1  -3.77433 2.38884 -5.6276
HEad  7.06752 30.8875 -10.8166
LeftShoulder1  3.1013 -9.49778 -17.8658
LeftArm  27.8212 -20.7498 -70.4196
LeftForeArm  40.4911 1.03666 -17.63
LeftHand  -0.0244857 6.76885 1.42852
RightShoulder  2.2675 7.35799 14.5215
RightArm  1.56835 42.144 86.4366
RightForeArm  102.309 -4.47129 7.15392
RightHand  0.465441 -17.6088 -5.13566
LeftUpLeg  -14.4305 -7.32425 -9.28799
LeftLeg  19.2823 0.862727 0.68634
LeftFoot  -16.5572 -0.209835 -6.77725
LeftToes  4.52251e-011 4.07896e-011 -5.42348e-012
224
root  44.2451 39.8497 -79.0311 114.062 -84.9371 -108.102
RightUpLeg  -79.2374 -11.8376 61.8981
RightLeg  129.59 4.82601 -4.82518
RightFoot  -24.3697 0.473338 5.59046
RightToes  6.35937e-011 1.2921e-014 -6.02303e-014
Spine  17.5242 -0.584263 6.31932
Spine1  -3.63319 2.03311 -4.46141
HEad  3.11251 30.9871 -13.1786
LeftShoulder1  3.26446 -9.95141 -18.2995
LeftArm  21.6774 -20.4669 -69.3025
LeftForeArm  44.0976 2.49649 -17.1995
LeftHand  -0.0212589 6.43008 1.39562
RightShoulder  2.28516 7.20737 15.0401
RightArm  1.7156 41.9978 86.92
RightForeArm  101.086 -4.54421 7.24879
RightHand  0.50246 -16.7204 -5.85562
LeftUpLeg  -15.7021 -5.31843 -11.57
LeftLeg  18.8855 8.65638 3.62342
LeftFoot  -15.7461 -0.137701 -6.02828
LeftToes  4.52251e-011 4.07896e-011 -5.42348e-012
